<mxfile host="Electron" agent="Mozilla/5.0 (Windows NT 10.0; Win64; x64) AppleWebKit/537.36 (KHTML, like Gecko) draw.io/28.0.6 Chrome/138.0.7204.100 Electron/37.2.3 Safari/537.36" version="28.0.6">
  <diagram name="Página-1" id="k4RXP40H7LBf8E-rNy3y">
    <mxGraphModel dx="1665" dy="841" grid="1" gridSize="10" guides="1" tooltips="1" connect="1" arrows="1" fold="1" page="1" pageScale="1" pageWidth="1654" pageHeight="1169" math="0" shadow="0">
      <root>
        <mxCell id="0" />
        <mxCell id="1" parent="0" />
        <mxCell id="WWlyXnJf1t-xP8lb2OqH-2" value="" style="verticalLabelPosition=bottom;verticalAlign=top;html=1;shape=mxgraph.basic.orthogonal_triangle;rotation=-180;" vertex="1" parent="1">
          <mxGeometry x="490" y="400" width="390" height="200" as="geometry" />
        </mxCell>
        <mxCell id="WWlyXnJf1t-xP8lb2OqH-4" value="" style="verticalLabelPosition=bottom;verticalAlign=top;html=1;shape=mxgraph.basic.orthogonal_triangle;rotation=0;shadow=0;flipV=1;" vertex="1" parent="1">
          <mxGeometry x="880" y="400" width="390" height="200" as="geometry" />
        </mxCell>
        <mxCell id="WWlyXnJf1t-xP8lb2OqH-5" value="4.30 m" style="text;html=1;align=center;verticalAlign=middle;resizable=0;points=[];autosize=1;strokeColor=none;fillColor=none;" vertex="1" parent="1">
          <mxGeometry x="680" y="368" width="60" height="30" as="geometry" />
        </mxCell>
        <mxCell id="WWlyXnJf1t-xP8lb2OqH-6" value="4.30 m" style="text;html=1;align=center;verticalAlign=middle;resizable=0;points=[];autosize=1;strokeColor=none;fillColor=none;" vertex="1" parent="1">
          <mxGeometry x="1025" y="368" width="60" height="30" as="geometry" />
        </mxCell>
        <mxCell id="WWlyXnJf1t-xP8lb2OqH-7" value="2.00 m" style="text;html=1;align=center;verticalAlign=middle;resizable=0;points=[];autosize=1;strokeColor=none;fillColor=none;" vertex="1" parent="1">
          <mxGeometry x="880" y="470" width="60" height="30" as="geometry" />
        </mxCell>
        <mxCell id="WWlyXnJf1t-xP8lb2OqH-8" value="4.74" style="text;html=1;align=center;verticalAlign=middle;resizable=0;points=[];autosize=1;strokeColor=none;fillColor=none;" vertex="1" parent="1">
          <mxGeometry x="1050" y="520" width="50" height="30" as="geometry" />
        </mxCell>
        <mxCell id="WWlyXnJf1t-xP8lb2OqH-9" value="4.74" style="text;html=1;align=center;verticalAlign=middle;resizable=0;points=[];autosize=1;strokeColor=none;fillColor=none;" vertex="1" parent="1">
          <mxGeometry x="670" y="520" width="50" height="30" as="geometry" />
        </mxCell>
        <mxCell id="WWlyXnJf1t-xP8lb2OqH-12" value="" style="curved=1;endArrow=classic;html=1;rounded=0;entryX=0.126;entryY=0.105;entryDx=0;entryDy=0;entryPerimeter=0;exitX=0.126;exitY=0.1;exitDx=0;exitDy=0;exitPerimeter=0;" edge="1" parent="1" source="WWlyXnJf1t-xP8lb2OqH-2" target="WWlyXnJf1t-xP8lb2OqH-4">
          <mxGeometry width="50" height="50" relative="1" as="geometry">
            <mxPoint x="800" y="560" as="sourcePoint" />
            <mxPoint x="850" y="510" as="targetPoint" />
            <Array as="points">
              <mxPoint x="880" y="540" />
            </Array>
          </mxGeometry>
        </mxCell>
        <mxCell id="WWlyXnJf1t-xP8lb2OqH-13" value="130.2 °" style="text;html=1;align=center;verticalAlign=middle;resizable=0;points=[];autosize=1;strokeColor=none;fillColor=none;" vertex="1" parent="1">
          <mxGeometry x="890" y="530" width="60" height="30" as="geometry" />
        </mxCell>
      </root>
    </mxGraphModel>
  </diagram>
</mxfile>
